<mxfile host="app.diagrams.net" agent="Mozilla/5.0 (Windows NT 10.0; Win64; x64) AppleWebKit/537.36 (KHTML, like Gecko) Chrome/138.0.0.0 Safari/537.36" version="24.9.1">
  <diagram name="PÃ¡gina-1" id="rKB5_wAkorHlWfx1PG9t">
    <mxGraphModel dx="824" dy="549" grid="1" gridSize="10" guides="1" tooltips="1" connect="1" arrows="1" fold="1" page="1" pageScale="1" pageWidth="827" pageHeight="1169" math="0" shadow="0">
      <root>
        <mxCell id="0" />
        <mxCell id="1" parent="0" />
        <mxCell id="uOAINbKGUoGwofSQ8YGM-2" value="cliente&lt;br&gt;&lt;div&gt;id (PK)&lt;/div&gt;&lt;div&gt;nome&lt;/div&gt;&lt;div&gt;bloco_apto&lt;/div&gt;&lt;div&gt;data_cadastro&lt;/div&gt;&lt;div&gt;&lt;br&gt;&lt;/div&gt;" style="ellipse;whiteSpace=wrap;html=1;" vertex="1" parent="1">
          <mxGeometry x="40" y="220" width="180" height="110" as="geometry" />
        </mxCell>
        <mxCell id="uOAINbKGUoGwofSQ8YGM-4" value="respostas_clientes&lt;div&gt;id (PK)&lt;/div&gt;&lt;div&gt;cliente_id (*FK)&lt;/div&gt;&lt;div&gt;resposta_id (FK)&lt;/div&gt;&lt;div&gt;data_resposta&lt;/div&gt;" style="ellipse;whiteSpace=wrap;html=1;" vertex="1" parent="1">
          <mxGeometry x="80" y="430" width="180" height="130" as="geometry" />
        </mxCell>
        <mxCell id="uOAINbKGUoGwofSQ8YGM-5" value="" style="endArrow=classic;html=1;rounded=0;entryX=0.389;entryY=0;entryDx=0;entryDy=0;entryPerimeter=0;exitX=0.5;exitY=1;exitDx=0;exitDy=0;" edge="1" parent="1" source="uOAINbKGUoGwofSQ8YGM-2" target="uOAINbKGUoGwofSQ8YGM-4">
          <mxGeometry width="50" height="50" relative="1" as="geometry">
            <mxPoint x="120" y="310" as="sourcePoint" />
            <mxPoint x="170" y="260" as="targetPoint" />
          </mxGeometry>
        </mxCell>
        <mxCell id="uOAINbKGUoGwofSQ8YGM-6" value="1:N" style="edgeLabel;html=1;align=center;verticalAlign=middle;resizable=0;points=[];" vertex="1" connectable="0" parent="uOAINbKGUoGwofSQ8YGM-5">
          <mxGeometry x="0.0507" y="-2" relative="1" as="geometry">
            <mxPoint as="offset" />
          </mxGeometry>
        </mxCell>
        <mxCell id="uOAINbKGUoGwofSQ8YGM-7" value="quiz_respostas&lt;div&gt;id (PK)&lt;/div&gt;&lt;div&gt;pergunta_id (FK)&lt;/div&gt;&lt;div&gt;texto_resposta&lt;/div&gt;&lt;div&gt;perfil_id(FK)&lt;/div&gt;" style="ellipse;whiteSpace=wrap;html=1;" vertex="1" parent="1">
          <mxGeometry x="280" y="260" width="210" height="120" as="geometry" />
        </mxCell>
        <mxCell id="uOAINbKGUoGwofSQ8YGM-9" value="" style="endArrow=classic;html=1;rounded=0;exitX=0.201;exitY=0.888;exitDx=0;exitDy=0;exitPerimeter=0;" edge="1" parent="1" source="uOAINbKGUoGwofSQ8YGM-7" target="uOAINbKGUoGwofSQ8YGM-4">
          <mxGeometry width="50" height="50" relative="1" as="geometry">
            <mxPoint x="300" y="350" as="sourcePoint" />
            <mxPoint x="350" y="300" as="targetPoint" />
          </mxGeometry>
        </mxCell>
        <mxCell id="uOAINbKGUoGwofSQ8YGM-10" value="1:N" style="edgeLabel;html=1;align=center;verticalAlign=middle;resizable=0;points=[];" vertex="1" connectable="0" parent="uOAINbKGUoGwofSQ8YGM-9">
          <mxGeometry x="-0.0441" y="1" relative="1" as="geometry">
            <mxPoint as="offset" />
          </mxGeometry>
        </mxCell>
        <mxCell id="uOAINbKGUoGwofSQ8YGM-11" value="perfil&lt;div&gt;id (PK)&lt;/div&gt;&lt;div&gt;nome&lt;/div&gt;&lt;div&gt;descricao&lt;/div&gt;" style="ellipse;whiteSpace=wrap;html=1;" vertex="1" parent="1">
          <mxGeometry x="200" y="60" width="170" height="100" as="geometry" />
        </mxCell>
        <mxCell id="uOAINbKGUoGwofSQ8YGM-12" value="" style="endArrow=classic;html=1;rounded=0;" edge="1" parent="1" target="uOAINbKGUoGwofSQ8YGM-7">
          <mxGeometry width="50" height="50" relative="1" as="geometry">
            <mxPoint x="280" y="160" as="sourcePoint" />
            <mxPoint x="330" y="110" as="targetPoint" />
            <Array as="points" />
          </mxGeometry>
        </mxCell>
        <mxCell id="uOAINbKGUoGwofSQ8YGM-13" value="1:N" style="edgeLabel;html=1;align=center;verticalAlign=middle;resizable=0;points=[];" vertex="1" connectable="0" parent="uOAINbKGUoGwofSQ8YGM-12">
          <mxGeometry x="0.0141" y="-1" relative="1" as="geometry">
            <mxPoint as="offset" />
          </mxGeometry>
        </mxCell>
        <mxCell id="uOAINbKGUoGwofSQ8YGM-14" value="quiz_perguntas&lt;div&gt;id (PK)&lt;/div&gt;&lt;div&gt;texto_pergunta&lt;/div&gt;&lt;div&gt;ordem&lt;/div&gt;" style="ellipse;whiteSpace=wrap;html=1;" vertex="1" parent="1">
          <mxGeometry x="414" y="50" width="180" height="100" as="geometry" />
        </mxCell>
        <mxCell id="uOAINbKGUoGwofSQ8YGM-15" value="" style="endArrow=classic;html=1;rounded=0;" edge="1" parent="1" target="uOAINbKGUoGwofSQ8YGM-7">
          <mxGeometry width="50" height="50" relative="1" as="geometry">
            <mxPoint x="479" y="150" as="sourcePoint" />
            <mxPoint x="529" y="100" as="targetPoint" />
          </mxGeometry>
        </mxCell>
        <mxCell id="uOAINbKGUoGwofSQ8YGM-16" value="1:N" style="edgeLabel;html=1;align=center;verticalAlign=middle;resizable=0;points=[];" vertex="1" connectable="0" parent="uOAINbKGUoGwofSQ8YGM-15">
          <mxGeometry x="-0.0654" y="3" relative="1" as="geometry">
            <mxPoint as="offset" />
          </mxGeometry>
        </mxCell>
      </root>
    </mxGraphModel>
  </diagram>
</mxfile>
